REM COMMENT "Generated by IcecastMetadataRecorder https://github.com/eshaz/icecast-metadata-js"
REM BR "16"
REM METAINT "64"
REM DATE "2020-07-29T21:16:11.222Z"
TITLE "isics-all"
FILE "isics-all.mp3" WAVE
  TRACK 1 AUDIO
    TITLE "2020-07-29T21:34:27.446Z TO:48696 Polk County - UnityPoint Health Security FROM:10779039"
    INDEX 01 18:16:17
  TRACK 2 AUDIO
    TITLE "2020-07-29T21:34:30.934Z TO:48696 Polk County - UnityPoint Health Security FROM:120"
    INDEX 01 18:19:53
  TRACK 3 AUDIO
    TITLE "2020-07-29T21:34:33.046Z TO:48696 Polk County - UnityPoint Health Security FROM:10779026"
    INDEX 01 18:21:62
  TRACK 4 AUDIO
    TITLE "2020-07-29T21:34:35.126Z TO:1101 Polk County - Westcom Law Enforcement 1 FROM:7609"
    INDEX 01 18:23:68
  TRACK 5 AUDIO
    TITLE "2020-07-29T21:34:38.646Z TO:1101 Polk County - Westcom Law Enforcement 1 FROM:1004"
    INDEX 01 18:27:32
  TRACK 6 AUDIO
    TITLE "2020-07-29T21:34:40.726Z TO:48696 Polk County - UnityPoint Health Security FROM:120"
    INDEX 01 18:29:38
  TRACK 7 AUDIO
    TITLE "2020-07-29T21:34:41.430Z TO:1101 Polk County - Westcom Law Enforcement 1 FROM:1004"
    INDEX 01 18:30:16
  TRACK 8 AUDIO
    TITLE "2020-07-29T21:34:44.950Z TO:48696 Polk County - UnityPoint Health Security FROM:10779026"
    INDEX 01 18:33:55
  TRACK 9 AUDIO
    TITLE "2020-07-29T21:34:47.734Z TO:1102 Polk County - Westcom Law Enforcement 2 FROM:UNKNOWN"
    INDEX 01 18:36:38
  TRACK 10 AUDIO
    TITLE "END"
    INDEX 01 18:37:69